<?xml version="1.0" encoding="UTF-8" standalone="no"?>
<!-- Generator: Adobe Illustrator 15.0.0, SVG Export Plug-In . SVG Version: 6.00 Build 0)  -->

<svg
   xmlns:dc="http://purl.org/dc/elements/1.1/"
   xmlns:cc="http://creativecommons.org/ns#"
   xmlns:rdf="http://www.w3.org/1999/02/22-rdf-syntax-ns#"
   xmlns:svg="http://www.w3.org/2000/svg"
   xmlns="http://www.w3.org/2000/svg"
   xmlns:sodipodi="http://sodipodi.sourceforge.net/DTD/sodipodi-0.dtd"
   xmlns:inkscape="http://www.inkscape.org/namespaces/inkscape"
   version="1.1"
   id="Layer_1"
   x="0px"
   y="0px"
   width="792px"
   height="612px"
   viewBox="0 0 792 612"
   enable-background="new 0 0 792 612"
   xml:space="preserve"
   inkscape:version="0.48.1 r9760"
   sodipodi:docname="stacked-logo.svg"
   inkscape:export-filename="stacked-logo.png"
   inkscape:export-xdpi="90"
   inkscape:export-ydpi="90"><metadata
   id="metadata3439"><rdf:RDF><cc:Work
       rdf:about=""><dc:format>image/svg+xml</dc:format><dc:type
         rdf:resource="http://purl.org/dc/dcmitype/StillImage" /><dc:title /></cc:Work></rdf:RDF></metadata><defs
   id="defs3437">
	
	

		
		
		
		
		
		
		
		
		
		
		
		
		
		
		
		
		
	</defs><sodipodi:namedview
   pagecolor="#ffffff"
   bordercolor="#666666"
   borderopacity="1"
   objecttolerance="10"
   gridtolerance="10"
   guidetolerance="10"
   inkscape:pageopacity="0"
   inkscape:pageshadow="2"
   inkscape:window-width="1234"
   inkscape:window-height="756"
   id="namedview3435"
   showgrid="false"
   inkscape:zoom="1.4142136"
   inkscape:cx="172.85924"
   inkscape:cy="468.81531"
   inkscape:window-x="0"
   inkscape:window-y="0"
   inkscape:window-maximized="1"
   inkscape:current-layer="Layer_1" />






<g
   id="g3054"><path
     clip-rule="evenodd"
     d="m 104.82846,18.98781 c -1.129,-1.229 -6.771,-1.1 -8.352,-1.115 -8.545,-0.075 -24.551,0.433 -32.525,0.419 -0.321,0 -1.429,0.542 -1.248,0.991 -5.668,10e-4 -8.691,0.019 -15.544,-0.042 -3.702,-0.038 -12.561,0.405 -12.774,-6.146 -0.11,-3.271 2.878,-6.179 6.424,-9.679 -2.26,-0.697 -4.542,0.827 -6.821,2.101 -1.118,1.097 -1.873,1.838 -2.808,2.757 -3.465,5.07 -4.816,10.157 -4.001,15.266 3.125,-0.6 5.449,3.678 3.251,5.694 l -1.955,0.027 c -0.921,0.012 -1.656,0.958 -1.637,2.109 l 0.06,4.541 c 0.02,1.15 0.779,1.922 1.702,1.908 h 9.851 c 0.924,-0.01 1.656,-0.959 1.637,-2.107 l -0.062,-4.542 c -0.016,-1.152 -0.781,-2.074 -1.698,-2.058 l -1.234,0.019 c -2.169,-6.113 4.825,-5.302 8.785,-5.263 7.448,0.065 9.92,0.043 16.473,0.049 0.377,0.451 0.193,1.286 1.226,1.711 0.636,0.268 40.016,0.175 40.726,0 0.709,-0.166 0.52,-0.504 0.779,-0.762 0.332,-1.367 1.098,-4.401 -0.255,-5.878 z m -66.423,10.998 v 4.796 c 0,0 -0.134,-3.128 -1.422,-3.335 -1.289,-0.21 -0.56,-1.461 -0.56,-1.461 h 1.982 z m 65.979,-8.858 c 0,0 -1.146,-0.39 -2.086,-0.994 -2.019,-1.292 -37.732,-0.134 -37.732,-0.134 l 1.017,-0.853 c 0,0 36.401,-0.626 37.655,0 1.25,0.626 1.146,1.981 1.146,1.981 z"
     id="path3387"
     inkscape:connector-curvature="0"
     style="fill:#2b3990;fill-rule:evenodd" /><g
     id="g3043"><path
       d="m 30.32915,92.023189 c 0.382,-0.723 0.576,-1.41 0.576,-2.041 0,-0.518 -0.206,-1.018 -0.608,-1.48 -0.396,-0.457 -0.899,-0.689 -1.501,-0.689 -0.505,0 -0.935,0.159 -1.283,0.467 -0.36,0.327 -0.703,0.785 -1.015,1.356 -0.592,1.022 -1.276,1.791 -2.04,2.285 -0.769,0.501 -1.704,0.756 -2.782,0.756 -0.801,0 -1.546,-0.158 -2.214,-0.466 -0.674,-0.308 -1.256,-0.771 -1.726,-1.371 -0.475,-0.594 -0.837,-1.324 -1.087,-2.166 -0.246,-0.833 -0.369,-1.763 -0.369,-2.765 0,-2.129 0.489,-3.836 1.454,-5.069 0.973,-1.24 2.274,-1.87 3.865,-1.87 1.104,0 2.025,0.253 2.746,0.757 0.71,0.495 1.4,1.247 2.051,2.231 0.348,0.488 0.668,0.845 0.945,1.058 0.266,0.21 0.605,0.311 1.01,0.311 0.631,0 1.177,-0.207 1.617,-0.619 0.448,-0.413 0.664,-0.905 0.664,-1.506 0,-0.593 -0.205,-1.24 -0.609,-1.932 -0.404,-0.692 -1.004,-1.362 -1.781,-1.981 -0.775,-0.616 -1.736,-1.127 -2.856,-1.521 -1.12,-0.39 -2.366,-0.589 -3.71,-0.589 -2.164,0 -4.053,0.45 -5.607,1.339 -1.551,0.892 -2.755,2.168 -3.574,3.797 -0.824,1.635 -1.242,3.54 -1.242,5.67 0,3.143 0.912,5.676 2.705,7.54 1.791,1.863 4.321,2.807 7.526,2.807 1.505,0 2.88,-0.203 4.087,-0.608 1.199,-0.406 2.207,-0.946 2.997,-1.607 0.787,-0.664 1.381,-1.369 1.761,-2.094 z"
       id="path3405"
       inkscape:connector-curvature="0"
       style="fill:#2b3990" /><path
       d="m 51.48815,92.322189 c -0.33,-1.077 -0.496,-2.134 -0.496,-3.133 0.012,-1.051 0.021,-2.014 0.028,-2.874 0.007,-0.859 0.01,-1.911 0.01,-3.145 0,-1.927 -0.271,-3.494 -0.806,-4.652 -0.535,-1.146 -1.455,-2 -2.74,-2.532 -1.303,-0.536 -3.123,-0.807 -5.412,-0.807 -2.045,0 -3.773,0.281 -5.141,0.838 -1.362,0.558 -2.375,1.269 -3.013,2.119 -0.635,0.847 -0.956,1.73 -0.956,2.623 0,0.556 0.195,1 0.601,1.359 0.411,0.362 0.884,0.535 1.448,0.535 0.613,0 1.012,-0.104 1.184,-0.31 0.197,-0.237 0.537,-0.729 1.012,-1.461 0.494,-0.759 1.094,-1.339 1.783,-1.724 0.693,-0.383 1.732,-0.575 3.082,-0.575 1.592,0 2.662,0.344 3.181,1.022 0.51,0.67 0.801,1.724 0.866,3.131 l 0.005,0.104 -0.099,0.028 c -1.086,0.319 -2.121,0.596 -3.084,0.825 -0.934,0.222 -2.082,0.473 -3.409,0.743 -1.397,0.286 -2.165,0.447 -2.484,0.52 -1.563,0.337 -2.804,1.012 -3.695,2.004 -0.888,0.991 -1.337,2.2 -1.337,3.6 0,1.038 0.273,2.015 0.812,2.905 0.535,0.886 1.314,1.601 2.31,2.121 1.001,0.521 2.179,0.787 3.501,0.787 1.455,0 2.785,-0.248 3.953,-0.733 1.178,-0.492 2.41,-1.236 3.667,-2.211 l 0.111,-0.088 0.077,0.122 c 0.58,0.951 1.141,1.684 1.658,2.184 0.498,0.482 1.008,0.727 1.511,0.727 0.605,0 1.159,-0.212 1.642,-0.634 0.482,-0.425 0.717,-0.874 0.717,-1.378 -10e-4,-0.293 -0.164,-0.98 -0.487,-2.04 z m -5.369,-5.659 c 0,1.839 -0.246,3.186 -0.732,4.001 -0.42,0.738 -1.092,1.347 -1.992,1.813 -0.893,0.463 -1.882,0.7 -2.94,0.7 -1.007,0 -1.835,-0.294 -2.464,-0.875 -0.63,-0.581 -0.949,-1.298 -0.949,-2.131 0,-0.805 0.275,-1.447 0.818,-1.902 0.525,-0.44 1.088,-0.742 1.672,-0.894 0.566,-0.149 1.595,-0.382 3.066,-0.695 1.462,-0.313 2.59,-0.614 3.348,-0.894 l 0.174,-0.065 v 0.942 z"
       id="path3407"
       inkscape:connector-curvature="0"
       style="fill:#2b3990" /><path
       d="m 67.84915,76.029189 c -1.017,-0.54 -2.079,-0.813 -3.16,-0.813 -1.07,0 -1.935,0.27 -2.57,0.8 -0.649,0.543 -1.292,1.357 -1.908,2.416 l -0.226,0.388 -0.018,-0.448 c -0.038,-1.049 -0.244,-1.854 -0.613,-2.382 -0.358,-0.515 -0.96,-0.773 -1.784,-0.773 -1.639,0 -2.437,1.117 -2.437,3.419 v 14.665 c 0,1.016 0.237,1.791 0.7,2.304 0.468,0.516 1.047,0.77 1.775,0.77 0.728,0 1.341,-0.257 1.814,-0.765 0.477,-0.501 0.717,-1.279 0.717,-2.309 v -4.397 c 0,-1.587 0.056,-2.946 0.156,-4.035 0.101,-1.105 0.293,-2.07 0.565,-2.878 0.278,-0.817 0.673,-1.445 1.178,-1.862 0.879,-0.729 2.179,-0.854 3.972,-0.274 0.904,0.29 1.238,0.353 1.358,0.353 0.478,0 0.933,-0.199 1.352,-0.593 0.419,-0.397 0.62,-0.889 0.62,-1.499 0.001,-0.871 -0.483,-1.551 -1.491,-2.087 z"
       id="path3409"
       inkscape:connector-curvature="0"
       style="fill:#2b3990" /><path
       d="m 89.36515,93.553189 c 0.782,-0.905 1.406,-2.04 1.856,-3.374 0.447,-1.336 0.679,-2.825 0.679,-4.425 0,-2.164 -0.397,-4.067 -1.176,-5.654 -0.778,-1.577 -1.849,-2.792 -3.184,-3.607 -1.336,-0.822 -2.82,-1.238 -4.406,-1.238 -1.322,0 -2.521,0.283 -3.567,0.845 -1.046,0.561 -2.071,1.456 -3.046,2.661 l -0.231,0.281 v -1.004 c 0,-0.912 -0.224,-1.619 -0.669,-2.1 -0.443,-0.48 -1.023,-0.721 -1.729,-0.721 -0.719,0 -1.287,0.236 -1.699,0.699 -0.411,0.467 -0.619,1.196 -0.619,2.162 v 22.725001 c 0,1.12 0.155,1.978 0.465,2.553 0.302,0.559 0.904,0.83 1.854,0.83 1.613,0 2.397,-1.093 2.397,-3.343 v -8.285001 l 0.231,0.295 c 0.912,1.156 1.886,2.038 2.889,2.628 0.996,0.593 2.249,0.892 3.725,0.892 1.222,0 2.381,-0.244 3.445,-0.733 1.066,-0.482 2.001,-1.187 2.785,-2.087 z m -3.18,-4.117 c -0.459,1.032 -1.078,1.821 -1.84,2.34 -0.766,0.521 -1.607,0.784 -2.504,0.784 -1.501,0 -2.775,-0.604 -3.785,-1.794 -1.008,-1.181 -1.516,-2.854 -1.516,-4.976 0,-2.245 0.513,-3.972 1.525,-5.136 1.021,-1.169 2.289,-1.762 3.775,-1.762 0.938,0 1.803,0.276 2.572,0.822 0.769,0.547 1.378,1.339 1.809,2.353 0.434,1.01 0.648,2.229 0.648,3.631 0.002,1.452 -0.229,2.71 -0.684,3.738 z"
       id="path3411"
       inkscape:connector-curvature="0"
       style="fill:#2b3990" /><path
       d="m 113.20815,92.567189 c 0.359,-0.613 0.543,-1.156 0.543,-1.604 0,-0.501 -0.151,-0.882 -0.457,-1.152 -0.314,-0.28 -0.716,-0.417 -1.228,-0.417 -0.468,0 -0.829,0.11 -1.072,0.318 -0.664,0.622 -1.19,1.105 -1.601,1.466 -0.414,0.362 -0.874,0.707 -1.366,1.026 -0.497,0.317 -1.019,0.556 -1.547,0.709 -0.529,0.149 -1.124,0.224 -1.765,0.224 -0.959,0 -1.848,-0.238 -2.643,-0.711 -0.798,-0.473 -1.443,-1.187 -1.92,-2.116 -0.476,-0.926 -0.726,-2.009 -0.738,-3.224 l -0.002,-0.13 h 10.434 c 1.35,0 2.406,-0.191 3.145,-0.571 0.707,-0.368 1.068,-1.195 1.068,-2.462 0,-1.399 -0.365,-2.795 -1.084,-4.145 -0.719,-1.351 -1.816,-2.465 -3.261,-3.318 -1.443,-0.851 -3.203,-1.282 -5.229,-1.282 -1.561,0 -2.999,0.253 -4.275,0.752 -1.273,0.498 -2.359,1.224 -3.232,2.154 -0.87,0.937 -1.543,2.073 -1.997,3.381 -0.458,1.312 -0.688,2.753 -0.688,4.287 0,3.257 0.937,5.87 2.78,7.766 1.845,1.893 4.467,2.854 7.796,2.854 1.461,0 2.768,-0.19 3.888,-0.573 1.122,-0.38 2.062,-0.867 2.796,-1.438 0.734,-0.568 1.291,-1.172 1.655,-1.794 z m -13.793,-8.485 c 0.182,-1.793 0.71,-3.172 1.568,-4.096 0.863,-0.931 1.982,-1.402 3.326,-1.402 1.406,0 2.561,0.465 3.424,1.382 0.857,0.912 1.361,2.298 1.492,4.118 l 0.01,0.144 h -9.836 l 0.016,-0.146 z"
       id="path3413"
       inkscape:connector-curvature="0"
       style="fill:#2b3990" /><path
       d="m 135.81015,83.499189 c 0,-1.145 -0.051,-2.098 -0.151,-2.84 -0.101,-0.725 -0.325,-1.412 -0.661,-2.038 -0.529,-1.081 -1.335,-1.926 -2.397,-2.513 -1.072,-0.592 -2.304,-0.892 -3.663,-0.892 -1.4,0 -2.652,0.286 -3.73,0.845 -1.077,0.559 -2.084,1.454 -2.995,2.654 l -0.233,0.308 v -1.022 c 0,-0.606 -0.107,-1.126 -0.324,-1.54 -0.213,-0.416 -0.497,-0.73 -0.846,-0.937 -0.354,-0.203 -0.756,-0.308 -1.189,-0.308 -0.715,0 -1.289,0.236 -1.696,0.699 -0.414,0.467 -0.625,1.196 -0.625,2.162 v 15.223 c 0,0.992 0.237,1.76 0.702,2.286 0.461,0.521 1.059,0.787 1.773,0.787 0.743,0 1.356,-0.257 1.824,-0.762 0.471,-0.504 0.71,-1.282 0.71,-2.312 v -6.599 c 0,-2.186 0.128,-3.637 0.39,-4.438 0.369,-1.001 0.958,-1.798 1.747,-2.373 0.791,-0.571 1.681,-0.86 2.64,-0.86 1.486,0 2.494,0.484 3,1.448 0.492,0.933 0.738,2.294 0.738,4.044 v 8.779 c 0,0.992 0.238,1.76 0.703,2.286 0.461,0.521 1.07,0.787 1.811,0.787 0.743,0 1.324,-0.254 1.785,-0.768 0.457,-0.514 0.689,-1.289 0.689,-2.305 v -9.801 z"
       id="path3415"
       inkscape:connector-curvature="0"
       style="fill:#2b3990" /><path
       d="m 152.32015,93.880189 c 0,-0.472 -0.157,-0.856 -0.474,-1.175 -0.317,-0.315 -0.664,-0.471 -1.056,-0.471 -0.285,0 -0.688,0.054 -1.208,0.158 -0.544,0.112 -0.964,0.169 -1.282,0.169 -0.601,0 -1.045,-0.155 -1.318,-0.457 -0.27,-0.295 -0.438,-0.683 -0.498,-1.151 -0.059,-0.453 -0.088,-1.097 -0.088,-1.919 v -9.813 h 1.113 c 1.02,0 1.808,-0.136 2.346,-0.41 0.515,-0.262 0.768,-0.709 0.768,-1.37 0,-0.511 -0.186,-0.938 -0.547,-1.263 -0.365,-0.329 -0.912,-0.498 -1.622,-0.498 h -2.058 v -3.718 c 0,-0.879 -0.049,-1.562 -0.143,-2.03 -0.09,-0.452 -0.307,-0.839 -0.646,-1.156 -0.513,-0.475 -1.093,-0.721 -1.726,-0.721 -0.449,0 -0.861,0.11 -1.226,0.323 -0.365,0.213 -0.647,0.492 -0.841,0.833 -0.198,0.329 -0.316,0.729 -0.361,1.189 -0.043,0.476 -0.067,1.146 -0.067,1.984 v 3.295 h -0.708 c -0.762,0 -1.345,0.169 -1.74,0.502 -0.389,0.329 -0.578,0.743 -0.578,1.259 0,0.52 0.181,0.937 0.553,1.273 0.373,0.335 0.927,0.506 1.651,0.506 h 0.822 v 10.239 c 0,1.617 0.132,2.927 0.394,3.886 0.252,0.939 0.797,1.686 1.614,2.217 0.824,0.538 2.058,0.811 3.671,0.811 1.709,0 3.031,-0.222 3.938,-0.664 0.887,-0.43 1.317,-1.024 1.317,-1.828 z"
       id="path3417"
       inkscape:connector-curvature="0"
       style="fill:#2b3990" /><path
       d="m 167.43515,76.029189 c -1.02,-0.54 -2.082,-0.813 -3.162,-0.813 -1.07,0 -1.933,0.27 -2.568,0.8 -0.648,0.543 -1.294,1.357 -1.91,2.416 l -0.228,0.388 -0.017,-0.448 c -0.035,-1.049 -0.241,-1.854 -0.613,-2.382 -0.356,-0.515 -0.957,-0.773 -1.783,-0.773 -1.64,0 -2.436,1.117 -2.436,3.419 v 14.665 c 0,1.016 0.234,1.791 0.698,2.304 0.47,0.516 1.05,0.77 1.776,0.77 0.73,0 1.342,-0.257 1.816,-0.765 0.475,-0.501 0.716,-1.279 0.716,-2.309 v -4.397 c 0,-1.587 0.052,-2.946 0.155,-4.035 0.104,-1.105 0.293,-2.07 0.566,-2.878 0.276,-0.817 0.673,-1.445 1.178,-1.862 0.877,-0.729 2.179,-0.854 3.972,-0.274 0.905,0.29 1.239,0.353 1.359,0.353 0.476,0 0.933,-0.199 1.349,-0.593 0.419,-0.397 0.625,-0.889 0.625,-1.499 0.001,-0.871 -0.488,-1.551 -1.493,-2.087 z"
       id="path3419"
       inkscape:connector-curvature="0"
       style="fill:#2b3990" /><path
       d="m 179.70215,101.44819 c 0.563,-0.887 1.143,-2.135001 1.728,-3.700001 l 6.867,-17.982 c 0.17,-0.47 0.308,-0.914 0.42,-1.354 0.114,-0.44 0.197,-0.788 0.252,-1.039 -0.006,-0.347 -0.099,-0.709 -0.289,-1.046 -0.186,-0.339 -0.454,-0.613 -0.799,-0.811 -0.342,-0.198 -0.709,-0.3 -1.082,-0.3 -0.527,0 -0.936,0.092 -1.213,0.27 -0.279,0.178 -0.553,0.536 -0.813,1.067 -0.265,0.545 -0.569,1.315 -0.899,2.281 l -4.349,12.412 -4.579,-13.32 c -0.291,-0.886 -0.63,-1.571 -1.002,-2.034 -0.361,-0.457 -0.889,-0.676 -1.613,-0.676 -0.414,0 -0.819,0.11 -1.201,0.331 -0.383,0.219 -0.688,0.514 -0.908,0.879 -0.219,0.365 -0.327,0.765 -0.327,1.187 0,0.407 0.198,1.077 0.588,1.993 l 6.501,16.377 -0.5,1.225 c -0.363,0.865 -0.689,1.53 -0.967,1.978 -0.287,0.461 -0.619,0.791 -0.986,0.982001 -0.367,0.189 -0.866,0.286 -1.486,0.286 -0.254,0 -0.556,-0.039 -0.898,-0.121 -0.262,-0.074 -0.531,-0.111 -0.801,-0.111 -0.685,0 -1.204,0.155 -1.541,0.457 -0.342,0.305 -0.509,0.73 -0.509,1.306 0,0.835 0.354,1.396 1.082,1.707 0.747,0.327 1.899,0.494 3.42,0.494 1.553,0 2.802,-0.239 3.712,-0.708 0.904,-0.47 1.644,-1.153 2.192,-2.03 z"
       id="path3421"
       inkscape:connector-curvature="0"
       style="fill:#2b3990" /></g><g
     transform="translate(-347.89654,-113.84419)"
     id="g3494"><path
       d="m 367.453,178.126 c 0.691,-1.008 1.041,-2.24 1.041,-3.659 0,-0.933 -0.261,-1.773 -0.778,-2.5 -0.519,-0.732 -1.296,-1.378 -2.307,-1.919 -1.026,-0.547 -2.365,-1.022 -3.976,-1.416 -1.402,-0.341 -2.464,-0.619 -3.248,-0.851 -0.795,-0.232 -1.439,-0.536 -1.913,-0.902 -0.493,-0.375 -0.745,-0.87 -0.745,-1.46 0,-0.653 0.336,-1.197 1.006,-1.624 0.645,-0.419 1.467,-0.626 2.443,-0.626 0.945,0 1.706,0.158 2.265,0.477 0.552,0.316 1.037,0.745 1.444,1.268 0.481,0.61 0.911,1.067 1.282,1.369 0.353,0.289 0.792,0.432 1.297,0.432 0.71,0 1.259,-0.178 1.637,-0.54 0.382,-0.365 0.567,-0.822 0.567,-1.394 0,-0.524 -0.184,-1.071 -0.547,-1.625 -0.367,-0.559 -0.912,-1.078 -1.623,-1.546 -0.713,-0.465 -1.615,-0.841 -2.68,-1.118 -1.073,-0.28 -2.301,-0.422 -3.643,-0.422 -1.713,0 -3.189,0.279 -4.394,0.829 -1.198,0.544 -2.12,1.286 -2.735,2.2 -0.61,0.913 -0.922,1.896 -0.922,2.918 0,1.148 0.334,2.125 0.993,2.909 0.664,0.787 1.565,1.437 2.681,1.919 1.129,0.492 2.614,0.968 4.408,1.41 1.611,0.389 2.787,0.805 3.499,1.235 0.739,0.449 1.114,1.164 1.114,2.133 0,0.651 -0.36,1.226 -1.067,1.718 -0.694,0.484 -1.591,0.729 -2.671,0.729 -1.318,0 -2.376,-0.242 -3.145,-0.713 -0.768,-0.474 -1.433,-1.195 -1.983,-2.15 -0.263,-0.476 -0.542,-0.849 -0.823,-1.108 -0.271,-0.244 -0.668,-0.369 -1.189,-0.369 -0.6,0 -1.081,0.192 -1.468,0.58 -0.392,0.394 -0.581,0.844 -0.581,1.39 0,0.845 0.317,1.697 0.94,2.537 0.625,0.848 1.613,1.562 2.936,2.13 1.331,0.571 2.949,0.86 4.811,0.86 1.955,0 3.636,-0.266 5,-0.793 1.35,-0.522 2.383,-1.297 3.074,-2.308 z"
       id="path3391"
       inkscape:connector-curvature="0"
       style="fill:#2b3990" /><path
       d="m 404.852,152.236 c -1.711,0 -3.07,0.222 -4.048,0.653 -0.962,0.43 -1.653,1.122 -2.055,2.056 -0.407,0.949 -0.618,2.257 -0.618,3.876 v 1.711 h -1.383 c -1.692,0 -2.512,0.579 -2.512,1.761 0,0.532 0.191,0.948 0.59,1.281 0.397,0.331 0.978,0.499 1.729,0.499 h 1.576 v 14.08 c 0,1.003 0.24,1.776 0.711,2.295 0.477,0.521 1.052,0.778 1.766,0.778 0.74,0 1.354,-0.264 1.823,-0.778 0.469,-0.519 0.71,-1.292 0.71,-2.295 v -14.08 h 1.422 c 0.916,0 1.641,-0.114 2.156,-0.335 0.486,-0.213 0.723,-0.713 0.723,-1.522 0,-1.132 -0.942,-1.683 -2.879,-1.683 h -1.422 v -1.384 c 0,-1.056 0.141,-1.882 0.418,-2.457 0.29,-0.606 0.949,-0.913 1.948,-0.913 0.353,0 0.788,0.037 1.294,0.116 0.493,0.076 0.843,0.114 1.041,0.114 0.402,0 0.744,-0.156 1.045,-0.48 0.301,-0.327 0.446,-0.708 0.446,-1.164 0,-1.41 -1.509,-2.129 -4.481,-2.129 z"
       id="path3393"
       inkscape:connector-curvature="0"
       style="fill:#2b3990" /><path
       d="m 423.168,178.733 c 0,-0.466 -0.162,-0.862 -0.475,-1.175 -0.317,-0.315 -0.663,-0.471 -1.056,-0.471 -0.283,0 -0.688,0.054 -1.208,0.158 -0.535,0.112 -0.967,0.169 -1.283,0.169 -0.6,0 -1.043,-0.155 -1.318,-0.457 -0.268,-0.295 -0.436,-0.683 -0.496,-1.151 -0.059,-0.447 -0.088,-1.092 -0.088,-1.919 v -9.813 h 1.114 c 1.019,0 1.808,-0.136 2.343,-0.41 0.516,-0.262 0.769,-0.709 0.769,-1.37 0,-0.511 -0.183,-0.938 -0.546,-1.263 -0.365,-0.329 -0.908,-0.498 -1.619,-0.498 h -2.061 v -3.718 c 0,-0.876 -0.047,-1.558 -0.144,-2.03 -0.089,-0.457 -0.3,-0.835 -0.644,-1.156 -0.515,-0.475 -1.095,-0.721 -1.727,-0.721 -0.449,0 -0.861,0.11 -1.227,0.323 -0.363,0.213 -0.646,0.492 -0.838,0.833 -0.198,0.329 -0.32,0.729 -0.361,1.189 -0.045,0.476 -0.066,1.144 -0.066,1.984 v 3.295 h -0.71 c -0.761,0 -1.349,0.169 -1.738,0.502 -0.392,0.329 -0.581,0.74 -0.581,1.259 0,0.52 0.182,0.937 0.555,1.273 0.371,0.335 0.924,0.506 1.648,0.506 h 0.826 v 10.239 c 0,1.617 0.131,2.927 0.389,3.886 0.255,0.939 0.798,1.686 1.617,2.217 0.824,0.538 2.059,0.811 3.672,0.811 1.707,0 3.034,-0.222 3.934,-0.664 0.889,-0.43 1.319,-1.024 1.319,-1.828 z"
       id="path3395"
       inkscape:connector-curvature="0"
       style="fill:#2b3990" /><path
       d="m 448.99,177.164 4.306,-12.617 c 0.39,-1.077 0.589,-1.886 0.589,-2.408 0,-0.552 -0.219,-1.042 -0.654,-1.449 -0.434,-0.413 -0.956,-0.621 -1.549,-0.621 -0.594,0 -1.055,0.134 -1.363,0.403 -0.316,0.272 -0.543,0.593 -0.676,0.949 -0.141,0.371 -0.326,0.987 -0.557,1.833 l -3.6,12.199 -3.249,-11.37 c -0.319,-1.089 -0.571,-1.859 -0.747,-2.292 -0.172,-0.422 -0.473,-0.822 -0.9,-1.188 -0.416,-0.355 -1.009,-0.536 -1.758,-0.536 -0.735,0 -1.323,0.181 -1.74,0.536 -0.426,0.366 -0.717,0.75 -0.867,1.146 -0.162,0.413 -0.408,1.197 -0.74,2.333 l -3.249,11.37 -3.562,-12.199 c -0.341,-1.18 -0.668,-2.026 -0.971,-2.505 -0.281,-0.451 -0.842,-0.681 -1.662,-0.681 -0.619,0 -1.145,0.216 -1.568,0.638 -0.428,0.429 -0.637,0.896 -0.637,1.432 0,0.435 0.211,1.242 0.63,2.406 l 4.265,12.619 c 0.115,0.336 0.273,0.788 0.479,1.359 0.2,0.561 0.438,1.055 0.7,1.459 0.26,0.4 0.585,0.709 0.97,0.922 0.386,0.212 0.858,0.322 1.411,0.322 1.078,0 1.84,-0.348 2.262,-1.028 0.442,-0.716 0.859,-1.791 1.24,-3.197 l 3.037,-10.703 3.137,10.696 c 0.253,0.92 0.494,1.674 0.71,2.251 0.21,0.556 0.537,1.032 0.978,1.413 0.431,0.378 1.034,0.568 1.795,0.568 0.736,0 1.321,-0.181 1.74,-0.53 0.424,-0.356 0.74,-0.768 0.938,-1.226 0.202,-0.469 0.493,-1.243 0.862,-2.304 z"
       id="path3397"
       inkscape:connector-curvature="0"
       style="fill:#2b3990" /><path
       d="m 475.305,177.175 c -0.33,-1.079 -0.495,-2.137 -0.495,-3.133 0.01,-1.051 0.021,-2.014 0.024,-2.874 0.009,-0.859 0.012,-1.911 0.012,-3.145 0,-1.925 -0.271,-3.492 -0.807,-4.652 -0.532,-1.146 -1.453,-2 -2.74,-2.532 -1.301,-0.536 -3.121,-0.807 -5.409,-0.807 -2.047,0 -3.778,0.281 -5.142,0.838 -1.361,0.558 -2.375,1.269 -3.012,2.119 -0.637,0.847 -0.959,1.73 -0.959,2.623 0,0.556 0.197,1 0.602,1.359 0.404,0.356 0.892,0.535 1.449,0.535 0.613,0 1.012,-0.104 1.183,-0.31 0.196,-0.235 0.536,-0.723 1.013,-1.463 0.492,-0.757 1.095,-1.337 1.783,-1.722 0.692,-0.383 1.73,-0.575 3.083,-0.575 1.59,0 2.659,0.344 3.181,1.022 0.511,0.67 0.8,1.724 0.865,3.131 l 0.004,0.104 -0.098,0.028 c -1.078,0.313 -2.116,0.593 -3.081,0.825 -0.942,0.223 -2.091,0.473 -3.411,0.743 -1.402,0.286 -2.165,0.447 -2.486,0.52 -1.561,0.337 -2.804,1.012 -3.695,2.004 -0.885,0.991 -1.335,2.2 -1.335,3.6 0,1.038 0.271,2.015 0.811,2.905 0.538,0.891 1.313,1.601 2.312,2.121 0.999,0.521 2.178,0.787 3.499,0.787 1.457,0 2.785,-0.248 3.953,-0.733 1.178,-0.492 2.41,-1.238 3.665,-2.211 l 0.115,-0.088 0.076,0.122 c 0.582,0.951 1.139,1.684 1.658,2.184 0.499,0.482 1.007,0.727 1.512,0.727 0.605,0 1.157,-0.212 1.64,-0.634 0.483,-0.425 0.719,-0.874 0.719,-1.378 -0.002,-0.297 -0.165,-0.982 -0.489,-2.04 z m -5.369,-5.659 c 0,1.841 -0.246,3.188 -0.731,4.001 -0.422,0.738 -1.092,1.347 -1.991,1.813 -0.896,0.463 -1.887,0.7 -2.945,0.7 -1.005,0 -1.831,-0.294 -2.459,-0.875 -0.631,-0.584 -0.949,-1.298 -0.949,-2.131 0,-0.805 0.273,-1.447 0.817,-1.902 0.524,-0.44 1.09,-0.742 1.671,-0.894 0.566,-0.149 1.596,-0.382 3.064,-0.695 1.465,-0.314 2.594,-0.614 3.348,-0.894 l 0.176,-0.065 v 0.942 z"
       id="path3399"
       inkscape:connector-curvature="0"
       style="fill:#2b3990" /><path
       d="m 491.664,160.882 c -1.016,-0.54 -2.081,-0.813 -3.16,-0.813 -1.07,0 -1.934,0.27 -2.567,0.8 -0.651,0.542 -1.292,1.356 -1.911,2.416 l -0.227,0.388 -0.018,-0.448 c -0.037,-1.049 -0.242,-1.854 -0.613,-2.382 -0.357,-0.515 -0.958,-0.773 -1.784,-0.773 -1.638,0 -2.435,1.117 -2.435,3.419 v 14.665 c 0,1.016 0.238,1.791 0.701,2.304 0.459,0.511 1.055,0.77 1.771,0.77 0.733,0 1.344,-0.257 1.817,-0.765 0.476,-0.501 0.718,-1.279 0.718,-2.309 v -4.397 c 0,-1.583 0.051,-2.94 0.151,-4.035 0.104,-1.105 0.297,-2.07 0.569,-2.878 0.274,-0.817 0.672,-1.441 1.178,-1.862 0.879,-0.729 2.176,-0.854 3.973,-0.274 0.902,0.29 1.238,0.353 1.359,0.353 0.477,0 0.93,-0.199 1.346,-0.593 0.422,-0.397 0.626,-0.886 0.626,-1.499 10e-4,-0.871 -0.486,-1.551 -1.494,-2.087 z"
       id="path3401"
       inkscape:connector-curvature="0"
       style="fill:#2b3990" /><path
       d="m 512.329,177.42 c 0.36,-0.613 0.542,-1.156 0.542,-1.604 0,-0.501 -0.148,-0.882 -0.455,-1.152 -0.311,-0.273 -0.723,-0.417 -1.229,-0.417 -0.468,0 -0.828,0.11 -1.072,0.318 -0.664,0.622 -1.191,1.105 -1.602,1.466 -0.409,0.36 -0.87,0.705 -1.363,1.026 -0.5,0.317 -1.02,0.556 -1.551,0.709 -0.529,0.149 -1.121,0.224 -1.761,0.224 -0.959,0 -1.851,-0.238 -2.646,-0.711 -0.797,-0.473 -1.44,-1.187 -1.918,-2.116 -0.479,-0.926 -0.725,-2.009 -0.74,-3.224 v -0.13 h 10.434 c 1.348,0 2.406,-0.191 3.145,-0.571 0.707,-0.368 1.068,-1.195 1.068,-2.462 0,-1.399 -0.366,-2.795 -1.086,-4.145 -0.719,-1.351 -1.815,-2.465 -3.26,-3.318 -1.443,-0.851 -3.204,-1.282 -5.23,-1.282 -1.558,0 -2.996,0.253 -4.274,0.752 -1.274,0.498 -2.36,1.224 -3.232,2.154 -0.87,0.937 -1.542,2.073 -1.997,3.381 -0.457,1.312 -0.688,2.753 -0.688,4.287 0,3.257 0.936,5.869 2.779,7.766 1.844,1.893 4.469,2.854 7.799,2.854 1.459,0 2.764,-0.19 3.884,-0.573 1.121,-0.378 2.06,-0.867 2.798,-1.438 0.734,-0.569 1.293,-1.172 1.655,-1.794 z m -13.791,-8.485 c 0.181,-1.793 0.71,-3.172 1.569,-4.096 0.861,-0.931 1.98,-1.402 3.324,-1.402 1.408,0 2.561,0.465 3.424,1.382 0.855,0.912 1.361,2.298 1.49,4.118 l 0.01,0.144 h -9.833 l 0.016,-0.146 z"
       id="path3403"
       inkscape:connector-curvature="0"
       style="fill:#2b3990" /><g
       id="g3423">
			<path
   d="m 378.281,155.002 c 0,0 -0.241,0.784 0,1.042 0.241,0.262 1.447,0.344 1.447,0.344 v 15.129 l 2.412,1.739 2.051,-1.915 v -14.82 l 0.603,-0.134 c 0.967,0.256 1.206,-0.603 1.206,-0.603 V 155 h -7.719 z m 5.064,16.169 -0.681,0.259 v -14.821 l 0.681,-0.22 v 14.782 z m 1.811,-15.429 c -0.722,0.044 -5.309,-0.479 -5.309,-0.479 h 5.309 c 0,0 0.725,0.435 0,0.479 z"
   id="path3425"
   inkscape:connector-curvature="0"
   style="fill:#2b3990" />
			<path
   clip-rule="evenodd"
   d="m 389.605,161.58 -0.002,0.003 -0.056,-0.038 c -0.41,-0.402 -0.949,-0.623 -1.521,-0.623 -1.203,0 -2.183,0.981 -2.183,2.186 0,0.569 0.218,1.109 0.62,1.522 l 0.037,0.041 c 0.073,0.067 0.147,0.133 0.235,0.197 1.504,1.336 2.363,3.244 2.363,5.242 0,3.866 -3.146,7.009 -7.01,7.009 -3.867,0 -7.01,-3.143 -7.01,-7.009 0,-1.961 0.834,-3.849 2.291,-5.175 0.62,-0.415 0.985,-1.096 0.985,-1.827 0,-1.205 -0.981,-2.186 -2.187,-2.186 -0.574,0 -1.121,0.224 -1.528,0.628 l -0.052,0.049 -0.018,-0.021 c -2.451,2.162 -3.854,5.266 -3.854,8.532 0,6.271 5.103,11.372 11.374,11.372 6.27,0 11.373,-5.101 11.373,-11.372 -0.002,-3.264 -1.407,-6.369 -3.857,-8.53 z"
   id="path3427"
   inkscape:connector-curvature="0"
   style="fill:#2b3990;fill-rule:evenodd" />
		</g></g></g>

</svg>