<?xml version="1.0" encoding="UTF-8" standalone="no"?>
<!-- Generator: Adobe Illustrator 15.0.0, SVG Export Plug-In . SVG Version: 6.00 Build 0)  -->

<svg
   xmlns:dc="http://purl.org/dc/elements/1.1/"
   xmlns:cc="http://creativecommons.org/ns#"
   xmlns:rdf="http://www.w3.org/1999/02/22-rdf-syntax-ns#"
   xmlns:svg="http://www.w3.org/2000/svg"
   xmlns="http://www.w3.org/2000/svg"
   xmlns:sodipodi="http://sodipodi.sourceforge.net/DTD/sodipodi-0.dtd"
   xmlns:inkscape="http://www.inkscape.org/namespaces/inkscape"
   version="1.1"
   id="Layer_1"
   x="0px"
   y="0px"
   width="792px"
   height="612px"
   viewBox="0 0 792 612"
   enable-background="new 0 0 792 612"
   xml:space="preserve"
   inkscape:version="0.48.1 "
   sodipodi:docname="software-carpentry-identity-logo-only.svg"><metadata
   id="metadata3745"><rdf:RDF><cc:Work
       rdf:about=""><dc:format>image/svg+xml</dc:format><dc:type
         rdf:resource="http://purl.org/dc/dcmitype/StillImage" /><dc:title></dc:title></cc:Work></rdf:RDF></metadata><defs
   id="defs3743" /><sodipodi:namedview
   pagecolor="#ffffff"
   bordercolor="#666666"
   borderopacity="1"
   objecttolerance="10"
   gridtolerance="10"
   guidetolerance="10"
   inkscape:pageopacity="0"
   inkscape:pageshadow="2"
   inkscape:window-width="640"
   inkscape:window-height="480"
   id="namedview3741"
   showgrid="false"
   inkscape:zoom="0.4754902"
   inkscape:cx="396"
   inkscape:cy="306"
   inkscape:window-x="0"
   inkscape:window-y="0"
   inkscape:window-maximized="0"
   inkscape:current-layer="Layer_1" />



<g
   id="g3605"
   transform="translate(-98.845361,-166.14433)">
	<path
   d="m 154.607,173.425 c 0,0 -1.448,4.702 0,6.271 1.452,1.567 8.704,2.067 8.704,2.067 v 90.946 l 14.501,10.45 12.326,-11.496 v -89.092 l 3.628,-0.808 c 5.802,1.543 7.25,-3.635 7.25,-3.635 v -4.702 h -46.409 z m 30.457,97.193 -4.106,1.568 v -89.093 l 4.106,-1.331 v 88.856 z m 10.88,-92.751 c -4.351,0.261 -31.91,-2.873 -31.91,-2.873 h 31.91 c 0,0 4.352,2.612 0,2.873 z"
   id="path3607"
   inkscape:connector-curvature="0"
   style="fill:#2b3990" />
	<path
   clip-rule="evenodd"
   d="m 222.687,212.972 -0.014,0.014 -0.334,-0.245 c -2.467,-2.397 -5.715,-3.718 -9.146,-3.718 -7.244,0 -13.136,5.892 -13.136,13.135 0,3.43 1.321,6.678 3.72,9.146 l 0.241,0.248 c 0.429,0.414 0.879,0.792 1.403,1.178 9.044,8.028 14.214,19.507 14.214,31.519 0,23.239 -18.906,42.146 -42.145,42.146 -23.239,0 -42.145,-18.906 -42.145,-42.146 0,-11.794 5.022,-23.136 13.778,-31.116 3.72,-2.486 5.912,-6.574 5.912,-10.974 0,-7.243 -5.892,-13.135 -13.135,-13.135 -3.46,0 -6.729,1.339 -9.204,3.77 l -0.295,0.29 -0.11,-0.11 c -14.733,12.996 -23.174,31.662 -23.174,51.275 0,37.7 30.672,68.373 68.373,68.373 37.7,0 68.371,-30.673 68.371,-68.373 0,-19.616 -8.442,-38.282 -23.174,-51.277 z"
   id="path3609"
   inkscape:connector-curvature="0"
   style="fill:#2b3990;fill-rule:evenodd" />
</g>




</svg>